<svg width="0" height="0" class="hidden">
  <symbol viewBox="0 0 0 0" id="sprite">
    <symbol viewBox="0 0 0 0" id="sprite">
      <symbol id="red-heart-icon" xmlns="http://www.w3.org/2000/svg" viewBox="0 0 122.88 107.39">
        <defs></defs>
        <title>red-heart</title>
        <path d="M60.83,17.18c8-8.35,13.62-15.57,26-17C110-2.46,131.27,21.26,119.57,44.61c-3.33,6.65-10.11,14.56-17.61,22.32-8.23,8.52-17.34,16.87-23.72,23.2l-17.4,17.26L46.46,93.55C29.16,76.89,1,55.92,0,29.94-.63,11.74,13.73.08,30.25.29c14.76.2,21,7.54,30.58,16.89Z"></path>
      </symbol>
      <symbol xmlns="http://www.w3.org/2000/svg" shape-rendering="geometricPrecision" text-rendering="geometricPrecision" image-rendering="optimizeQuality" fill-rule="evenodd" clip-rule="evenodd" viewBox="0 0 512 462.799" id="x-social-media-black-icon">
        <path fill-rule="nonzero" d="M403.229 0h78.506L310.219 196.04 512 462.799H354.002L230.261 301.007 88.669 462.799h-78.56l183.455-209.683L0 0h161.999l111.856 147.88L403.229 0zm-27.556 415.805h43.505L138.363 44.527h-46.68l283.99 371.278z"></path>
      </symbol>
      <symbol version="1.1" id="three-horizontal-lines-icon" xmlns="http://www.w3.org/2000/svg" xmlns:xlink="http://www.w3.org/1999/xlink" x="0px" y="0px" xml:space="preserve" viewBox="0 0 122.88 95.95">
        <g>
          <path d="M8.94,0h105c4.92,0,8.94,4.02,8.94,8.94l0,0c0,4.92-4.02,8.94-8.94,8.94h-105C4.02,17.88,0,13.86,0,8.94l0,0 C0,4.02,4.02,0,8.94,0L8.94,0z M8.94,78.07h105c4.92,0,8.94,4.02,8.94,8.94l0,0c0,4.92-4.02,8.94-8.94,8.94h-105 C4.02,95.95,0,91.93,0,87.01l0,0C0,82.09,4.02,78.07,8.94,78.07L8.94,78.07z M8.94,39.03h105c4.92,0,8.94,4.02,8.94,8.94l0,0 c0,4.92-4.02,8.94-8.94,8.94h-105C4.02,56.91,0,52.89,0,47.97l0,0C0,43.06,4.02,39.03,8.94,39.03L8.94,39.03z"></path>
        </g>
      </symbol>
      <symbol version="1.1" id="envelope-line-icon" xmlns="http://www.w3.org/2000/svg" xmlns:xlink="http://www.w3.org/1999/xlink" x="0px" y="0px" enable-background="new 0 0 122.879 88.855" xml:space="preserve" viewBox="0 0 122.879 88.855">
        <g>
          <path d="M7.048,0h108.784c1.939,0,3.701,0.794,4.977,2.069c1.277,1.277,2.07,3.042,2.07,4.979v74.759 c0,1.461-0.451,2.822-1.221,3.951c-0.141,0.365-0.361,0.705-0.662,0.994c-0.201,0.189-0.422,0.344-0.656,0.461 c-1.225,1.021-2.799,1.643-4.508,1.643H7.048c-1.937,0-3.701-0.793-4.979-2.07C0.794,85.51,0,83.748,0,81.807V7.048 c0-1.941,0.792-3.704,2.068-4.979C3.344,0.792,5.107,0,7.048,0L7.048,0z M5.406,78.842l38.124-38.22L5.406,9.538V78.842 L5.406,78.842z M47.729,44.045L8.424,83.449h105.701L76.563,44.051L64.18,54.602l0,0c-0.971,0.83-2.425,0.877-3.453,0.043 L47.729,44.045L47.729,44.045z M80.674,40.549l36.799,38.598V9.198L80.674,40.549L80.674,40.549z M8.867,5.406l53.521,43.639 l51.223-43.639H8.867L8.867,5.406z"></path>
        </g>
      </symbol>
      <symbol version="1.1" id="maps-pin-line-icon" xmlns="http://www.w3.org/2000/svg" xmlns:xlink="http://www.w3.org/1999/xlink" x="0px" y="0px" xml:space="preserve" viewBox="0 0 92.26 122.88">
        <g>
          <path d="M47.49,116.85c6.31-4.01,11.98-8.87,16.92-14.29c10.73-11.75,17.97-26.11,20.87-40.2c2.88-13.91,1.52-27.54-4.85-38.06 c-1.81-3.02-4.08-5.78-6.78-8.26c-7.74-7.05-16.6-10.41-25.52-10.5c-9.37-0.07-18.87,3.45-27.27,10.14 c-3.58,2.86-6.53,6.15-8.82,9.78c-5.9,9.28-7.69,20.8-5.74,32.85c1.97,12.23,7.78,25.02,17.04,36.61 c6.44,8.08,14.54,15.58,24.18,21.91L47.49,116.85L47.49,116.85z M46.13,21.16c7.05,0,13.45,2.86,18.06,7.49 c4.63,4.63,7.49,11,7.49,18.06c0,7.05-2.86,13.45-7.49,18.06c-4.63,4.63-11,7.49-18.06,7.49c-7.05,0-13.45-2.86-18.06-7.49 c-4.63-4.63-7.49-11-7.49-18.06c0-7.05,2.86-13.45,7.49-18.06C32.7,24.02,39.07,21.16,46.13,21.16L46.13,21.16z M60.51,32.33 c-3.67-3.67-8.78-5.97-14.38-5.97c-5.63,0-10.71,2.27-14.38,5.97c-3.67,3.67-5.97,8.78-5.97,14.38c0,5.63,2.27,10.71,5.97,14.38 c3.67,3.67,8.78,5.97,14.38,5.97c5.63,0,10.71-2.27,14.38-5.97c3.67-3.67,5.97-8.78,5.97-14.38C66.47,41.08,64.21,36,60.51,32.33 L60.51,32.33z M68.52,106.27c-5.6,6.12-12.09,11.61-19.42,16.06c-0.88,0.66-2.13,0.75-3.13,0.11 c-10.8-6.87-19.85-15.13-26.99-24.09C9.15,86.02,2.94,72.34,0.83,59.16c-2.15-13.36-0.14-26.2,6.51-36.68 c2.63-4.13,5.97-7.89,10.07-11.14C26.78,3.88,37.51-0.07,48.17,0c10.28,0.09,20.42,3.9,29.22,11.93c3.09,2.81,5.67,5.99,7.78,9.48 c7.15,11.77,8.69,26.81,5.56,42.01c-3.11,15.04-10.8,30.33-22.18,42.8L68.52,106.27L68.52,106.27z"></path>
        </g>
      </symbol>
      <symbol version="1.1" id="calendar-blank-icon" xmlns="http://www.w3.org/2000/svg" xmlns:xlink="http://www.w3.org/1999/xlink" x="0px" y="0px" xml:space="preserve" viewBox="0 0 110.01 122.88">
        <g>
          <path d="M1.87,14.69h22.66L24.5,14.3V4.13C24.5,1.86,26.86,0,29.76,0c2.89,0,5.26,1.87,5.26,4.13V14.3l-0.03,0.39 h38.59l-0.03-0.39V4.13C73.55,1.86,75.91,0,78.8,0c2.89,0,5.26,1.87,5.26,4.13V14.3l-0.03,0.39h24.11c1.03,0,1.87,0.84,1.87,1.87 v19.46c0,1.03-0.84,1.87-1.87,1.87H1.87C0.84,37.88,0,37.04,0,36.01V16.55C0,15.52,0.84,14.69,1.87,14.69L1.87,14.69z M0.47,42.19 h109.08c0.26,0,0.46,0.21,0.46,0.46l0,0v79.76c0,0.25-0.21,0.46-0.46,0.46l-109.08,0c-0.25,0-0.47-0.21-0.47-0.46V42.66 C0,42.4,0.21,42.19,0.47,42.19L0.47,42.19L0.47,42.19z M8.23,49.97h95.07c0.52,0,0.94,0.45,0.94,0.94v64.08 c0,0.49-0.45,0.94-0.94,0.94H7.77c-0.49,0-0.94-0.42-0.94-0.94l0-63.63c0-1.03,0.84-1.86,1.86-1.86L8.23,49.97L8.23,49.97z M78.34,29.87c2.89,0,5.26-1.87,5.26-4.13V15.11l-0.03-0.41H73.11l-0.03,0.41v10.16c0,2.27,2.36,4.13,5.25,4.13L78.34,29.87 L78.34,29.87z M29.29,29.87c2.89,0,5.26-1.87,5.26-4.13V15.11l-0.03-0.41H24.07l-0.03,0.41v10.16c0,2.27,2.36,4.13,5.25,4.13 L29.29,29.87L29.29,29.87z"></path>
        </g>
      </symbol>
      <symbol version="1.1" id="smartphone-icon" xmlns="http://www.w3.org/2000/svg" xmlns:xlink="http://www.w3.org/1999/xlink" x="0px" y="0px" xml:space="preserve" viewBox="0 0 71.31 122.88">
        <g>
          <path d="M12.47,0h46.36c3.43,0,6.55,1.4,8.81,3.66c2.26,2.26,3.66,5.38,3.66,8.81v97.94c0,3.43-1.4,6.55-3.66,8.81 c-2.26,2.26-5.38,3.66-8.81,3.66H12.47c-3.43,0-6.55-1.4-8.81-3.66C1.4,116.96,0,113.84,0,110.41V12.47c0-3.43,1.4-6.55,3.66-8.81 C5.92,1.4,9.04,0,12.47,0L12.47,0z M28.93,113c-0.83,0-1.5-0.67-1.5-1.5c0-0.83,0.67-1.5,1.5-1.5h13.72c0.83,0,1.5,0.67,1.5,1.5 c0,0.83-0.67,1.5-1.5,1.5H28.93L28.93,113z M27.65,7.16c1.31,0,2.38,1.07,2.38,2.38c0,1.31-1.07,2.38-2.38,2.38 c-1.31,0-2.38-1.07-2.38-2.38C25.27,8.23,26.34,7.16,27.65,7.16L27.65,7.16z M35.65,7.16c1.31,0,2.38,1.07,2.38,2.38 c0,1.31-1.07,2.38-2.38,2.38c-1.32,0-2.38-1.07-2.38-2.38C33.27,8.23,34.34,7.16,35.65,7.16L35.65,7.16z M43.65,7.16 c1.31,0,2.38,1.07,2.38,2.38c0,1.31-1.07,2.38-2.38,2.38c-1.32,0-2.38-1.07-2.38-2.38C41.27,8.23,42.34,7.16,43.65,7.16L43.65,7.16 z M3,99.29h65.31V19.21H3V99.29L3,99.29z M68.31,102.29H3v8.12c0,2.6,1.07,4.97,2.78,6.69c1.72,1.72,4.09,2.78,6.69,2.78h46.36 c2.6,0,4.97-1.07,6.69-2.78c1.72-1.72,2.78-4.09,2.78-6.69V102.29L68.31,102.29z M3,16.21h65.31v-3.74c0-2.6-1.07-4.97-2.78-6.69 C63.81,4.06,61.44,3,58.83,3H12.47C9.87,3,7.5,4.06,5.78,5.78C4.06,7.5,3,9.87,3,12.47V16.21L3,16.21z"></path>
        </g>
      </symbol>
      <symbol xmlns="http://www.w3.org/2000/svg" shape-rendering="geometricPrecision" text-rendering="geometricPrecision" image-rendering="optimizeQuality" fill-rule="evenodd" clip-rule="evenodd" viewBox="0 0 512 512" id="telegram-white-icon">
        <path fill="#fff" d="M512 256C512 114.62 397.38 0 256 0S0 114.62 0 256s114.62 256 256 256 256-114.62 256-256zm-396.12-2.7c74.63-32.52 124.39-53.95 149.29-64.31 71.1-29.57 85.87-34.71 95.5-34.88 2.12-.03 6.85.49 9.92 2.98 2.59 2.1 3.3 4.94 3.64 6.93.34 2 .77 6.53.43 10.08-3.85 40.48-20.52 138.71-29 184.05-3.59 19.19-10.66 25.62-17.5 26.25-14.86 1.37-26.15-9.83-40.55-19.27-22.53-14.76-35.26-23.96-57.13-38.37-25.28-16.66-8.89-25.81 5.51-40.77 3.77-3.92 69.27-63.5 70.54-68.9.16-.68.31-3.2-1.19-4.53s-3.71-.87-5.3-.51c-2.26.51-38.25 24.3-107.98 71.37-10.22 7.02-19.48 10.43-27.77 10.26-9.14-.2-26.72-5.17-39.79-9.42-16.03-5.21-28.77-7.97-27.66-16.82.57-4.61 6.92-9.32 19.04-14.14z"></path>
      </symbol>
      <symbol xmlns="http://www.w3.org/2000/svg" shape-rendering="geometricPrecision" text-rendering="geometricPrecision" image-rendering="optimizeQuality" fill-rule="evenodd" clip-rule="evenodd" viewBox="0 0 512 510.125" id="facebook-app-round-white-icon">
        <path fill="#fff" fill-rule="nonzero" d="M512 256C512 114.615 397.385 0 256 0S0 114.615 0 256c0 120.059 82.652 220.797 194.157 248.461V334.229h-52.79V256h52.79v-33.709c0-87.134 39.432-127.521 124.977-127.521 16.218 0 44.202 3.18 55.651 6.36v70.916c-6.042-.635-16.537-.954-29.575-.954-41.977 0-58.196 15.901-58.196 57.241V256h83.619l-14.365 78.229h-69.254v175.896C413.771 494.815 512 386.885 512 256z"></path>
      </symbol>
    </symbol>
    <symbol xmlns="http://www.w3.org/2000/svg" viewBox="0 0 50 50" id="icons8-linkedin">
      <path d="M41,4H9C6.24,4,4,6.24,4,9v32c0,2.76,2.24,5,5,5h32c2.76,0,5-2.24,5-5V9C46,6.24,43.76,4,41,4z M17,20v19h-6V20H17z M11,14.47c0-1.4,1.2-2.47,3-2.47s2.93,1.07,3,2.47c0,1.4-1.12,2.53-3,2.53C12.2,17,11,15.87,11,14.47z M39,39h-6c0,0,0-9.26,0-10 c0-2-1-4-3.5-4.04h-0.08C27,24.96,26,27.02,26,29c0,0.91,0,10,0,10h-6V20h6v2.56c0,0,1.93-2.56,5.81-2.56 c3.97,0,7.19,2.73,7.19,8.26V39z"></path>
    </symbol>
  </symbol>
  <symbol xmlns="http://www.w3.org/2000/svg" viewBox="0 0 48 48" id="icons8-github">
    <path d="M 24 4 C 12.972066 4 4 12.972074 4 24 C 4 35.027926 12.972066 44 24 44 C 35.027934 44 44 35.027926 44 24 C 44 12.972074 35.027934 4 24 4 z M 24 7 C 33.406615 7 41 14.593391 41 24 C 41 31.66536 35.956939 38.122519 29 40.251953 L 29 35.136719 C 29 33.226635 27.899316 31.588619 26.308594 30.773438 A 10 8 0 0 0 32.4375 18.720703 C 32.881044 17.355414 33.376523 14.960672 32.199219 13.076172 C 29.929345 13.076172 28.464667 14.632086 27.765625 15.599609 A 10 8 0 0 0 24 15 A 10 8 0 0 0 20.230469 15.59375 C 19.529731 14.625773 18.066226 13.076172 15.800781 13.076172 C 14.449711 15.238817 15.28492 17.564557 15.732422 18.513672 A 10 8 0 0 0 21.681641 30.779297 C 20.3755 31.452483 19.397283 32.674042 19.097656 34.15625 L 17.783203 34.15625 C 16.486203 34.15625 15.98225 33.629234 15.28125 32.740234 C 14.58925 31.851234 13.845172 31.253859 12.951172 31.005859 C 12.469172 30.954859 12.144453 31.321484 12.564453 31.646484 C 13.983453 32.612484 14.081391 34.193516 14.650391 35.228516 C 15.168391 36.160516 16.229687 37 17.429688 37 L 19 37 L 19 40.251953 C 12.043061 38.122519 7 31.66536 7 24 C 7 14.593391 14.593385 7 24 7 z"></path>
  </symbol>
</svg>